<svg width="16" height="16" viewBox="0 0 16 16" fill="currentcolor" xmlns="http://www.w3.org/2000/svg">
<path d="M13 10.5H11.5V9H10.5V10.5H9V11.5H10.5V13H11.5V11.5H13V10.5Z" fill="currentcolor"/>
<path d="M11 15C8.8 15 7 13.2 7 11C7 8.8 8.8 7 11 7C13.2 7 15 8.8 15 11C15 13.2 13.2 15 11 15ZM11 8C9.35 8 8 9.35 8 11C8 12.65 9.35 14 11 14C12.65 14 14 12.65 14 11C14 9.35 12.65 8 11 8Z" fill="currentcolor"/>
<path d="M14 3C14 2.45 13.55 2 13 2H11V1H10V2H6V1H5V2H3C2.45 2 2 2.45 2 3V13C2 13.55 2.45 14 3 14H6V13H3V3H5V4H6V3H10V4H11V3H13V6H14V3Z" fill="currentcolor"/>
</svg>
