<svg width="6" height="5" viewBox="0 0 6 5" fill="none" xmlns="http://www.w3.org/2000/svg">
<path d="M2.99961 4.5C2.87196 4.49936 2.74606 4.47031 2.63104 4.41496C2.51602 4.35961 2.41476 4.27935 2.33461 4.18L0.229607 1.63C0.106604 1.47648 0.0292003 1.2915 0.0062159 1.09613C-0.0167685 0.900766 0.015591 0.702871 0.0996073 0.525C0.167747 0.370413 0.278944 0.238707 0.419917 0.145611C0.56089 0.0525159 0.725681 0.00196653 0.894607 0L5.10461 0C5.27353 0.00196653 5.43833 0.0525159 5.5793 0.145611C5.72027 0.238707 5.83147 0.370413 5.89961 0.525C5.98362 0.702871 6.01598 0.900766 5.993 1.09613C5.97002 1.2915 5.89261 1.47648 5.76961 1.63L3.66461 4.18C3.58446 4.27935 3.4832 4.35961 3.36818 4.41496C3.25315 4.47031 3.12725 4.49936 2.99961 4.5Z" fill="#303030"/>
</svg>
